<svg width="550" height="550" version="1.1" viewBox="0 0 145.52 145.52" xmlns="http://www.w3.org/2000/svg">
    <g>
        <g fill="none">
            <path d="m77.223 3.3208v96.327" stroke="#fff" stroke-opacity=".5" stroke-width=".52917" />
            <path d="m86.934 54.682 3.8684-1.2471 1.2754 3.9563" stroke="#fff" stroke-opacity=".5"
                stroke-width=".42767" />
            <path d="m93.338 20.674a17.205 17.205 0 0 1 1.0895 6.0253" stroke="#ffe970" stroke-width=".26458" />
            <path d="m82.853 42.957a17.205 17.205 0 0 1-5.6598 0.94712" stroke="#ffe970" stroke-width=".26458" />
            <g>
                <path d="m76.859 26.699h64.656" stroke="#fff" stroke-dasharray="0.52916665,1.05833331"
                    stroke-opacity=".5" stroke-width=".52917" />
                <path d="m76.933 26.666 64.584-23.277" stroke="#ffe970" stroke-dasharray="0.52916665,1.05833331"
                    stroke-width=".52917" />
                <path d="m77.223 26.699 11.16 32.373" stroke="#fffff0" stroke-opacity=".5" stroke-width=".42767" />
            </g>
            <path d="m25.708 20.71h31.187v11.978h-31.187z" stroke="#fff" stroke-width=".49536" />
        </g>
        <g fill="#ffe970">
            <g stroke-width=".42767" aria-label="θ">
                <path
                    d="m99.32 23.078q0 0.52902-0.06404 0.88264-0.06404 0.35083-0.16428 0.58471-0.16149 0.37589-0.45385 0.568-0.29236 0.18934-0.71558 0.18934t-0.71558-0.18934q-0.29236-0.19212-0.45385-0.568-0.10302-0.23388-0.16706-0.58471-0.06126-0.35361-0.06126-0.88264 0-0.48448 0.06126-0.84922 0.06404-0.36753 0.16984-0.59863 0.15871-0.36196 0.45106-0.55408 0.29514-0.19212 0.71558-0.19212 0.42044 0 0.71279 0.19212 0.29514 0.19212 0.45385 0.55408 0.10302 0.23388 0.16706 0.59863 0.06404 0.36475 0.06404 0.84922zm-0.52624-0.25059q-0.01114-0.39816-0.08075-0.69608-0.06682-0.29792-0.15592-0.44828-0.11416-0.1949-0.26451-0.27286-0.15035-0.08075-0.37032-0.08075t-0.37032 0.08075q-0.15036 0.07796-0.26451 0.27286-0.09467 0.15314-0.16149 0.45106-0.06404 0.29514-0.07518 0.6933zm0 0.44828h-1.743q0 0.39538 0.06404 0.72114 0.06404 0.32298 0.16428 0.49561 0.11137 0.19212 0.2673 0.27843 0.15592 0.08631 0.37589 0.08631t0.37589-0.08631 0.2673-0.27843q0.10024-0.17263 0.16428-0.49561 0.06404-0.32577 0.06404-0.72114z" />
            </g>
            <g stroke-width=".42767" aria-label="θ">
                <path
                    d="m82.113 47.188q0 0.52902-0.06404 0.88264-0.06404 0.35083-0.16428 0.58471-0.16149 0.37589-0.45385 0.56801-0.29236 0.18934-0.71558 0.18934t-0.71558-0.18934q-0.29236-0.19212-0.45385-0.56801-0.10302-0.23388-0.16706-0.58471-0.06126-0.35361-0.06126-0.88264 0-0.48448 0.06126-0.84922 0.06404-0.36753 0.16984-0.59863 0.15871-0.36196 0.45106-0.55408 0.29514-0.19212 0.71558-0.19212 0.42044 0 0.71279 0.19212 0.29514 0.19212 0.45385 0.55408 0.10302 0.23388 0.16706 0.59863 0.06404 0.36475 0.06404 0.84922zm-0.52624-0.25059q-0.01114-0.39816-0.08075-0.69608-0.06682-0.29792-0.15592-0.44828-0.11416-0.1949-0.26451-0.27287-0.15036-0.08075-0.37032-0.08075t-0.37032 0.08075q-0.15036 0.07796-0.26451 0.27287-0.09467 0.15314-0.16149 0.45106-0.06404 0.29514-0.07518 0.6933zm0 0.44828h-1.743q0 0.39538 0.06404 0.72114 0.06404 0.32298 0.16428 0.49561 0.11137 0.19212 0.2673 0.27843 0.15592 0.08631 0.37589 0.08631t0.37589-0.08631 0.2673-0.27843q0.10024-0.17263 0.16428-0.49561 0.06404-0.32577 0.06404-0.72114z" />
            </g>
            <g stroke-width=".27795" aria-label="0">
                <path
                    d="m39.879 26.784q0-1.1416 0.37867-1.7263 0.37867-0.5875 1.097-0.5875 1.3699 0 1.3699 2.2108 0 1.0915-0.38702 1.6706-0.38424 0.57636-1.0803 0.57636-0.6571 0-1.0191-0.54852-0.35918-0.54852-0.35918-1.5954zm0.55687-0.02506q0 1.7179 0.8715 1.7179 0.85758 0 0.85758-1.7458 0-1.807-0.84087-1.807-0.8882 0-0.8882 1.8349z" />
            </g>
        </g>
        <g fill="#fff" stroke-width=".27799" aria-label="x0">
            <path
                d="m6.9088 28.15h-0.65989l-0.88264-1.1945-0.8882 1.1945h-0.60977l1.214-1.5509-1.2028-1.5592h0.65989l0.87707 1.175 0.87985-1.175h0.61256l-1.2223 1.5314z" />
            <path
                d="m8.3756 27.32q0 0.44661-0.14033 0.65599-0.13922 0.20827-0.43324 0.20827-0.29848 0-0.43658-0.21161-0.13699-0.21161-0.13699-0.65042 0-0.44215 0.13922-0.65265 0.13922-0.21161 0.43436-0.21161 0.29848 0 0.43547 0.21495 0.1381 0.21384 0.1381 0.64708zm-0.29291 0.50564q0.038981-0.09021 0.052345-0.21161 0.014479-0.12251 0.014479-0.29403 0-0.16929-0.014479-0.29403-0.013365-0.12474-0.053459-0.21161-0.038981-0.08576-0.10692-0.12919-0.066824-0.04344-0.17263-0.04344-0.10469 0-0.17374 0.04344-0.067938 0.04344-0.10803 0.13142-0.037867 0.08242-0.052346 0.21495-0.013365 0.13254-0.013365 0.29068 0 0.17374 0.012251 0.29068t0.052346 0.20938q0.036753 0.08687 0.10358 0.13254 0.067938 0.04566 0.17931 0.04566 0.10469 0 0.17374-0.04344 0.069052-0.04343 0.10692-0.13142z" />
        </g>
        <g fill="#56d4ff" stroke-width=".42767" aria-label="d">
            <path
                d="m74.581 48.129h-0.52346v-0.32577q-0.22553 0.1949-0.47055 0.30349t-0.53181 0.10859q-0.55687 0-0.88542-0.42879-0.32577-0.42879-0.32577-1.1889 0-0.39538 0.11137-0.70444 0.11416-0.30906 0.30628-0.52624 0.18934-0.21161 0.43993-0.32298 0.25338-0.11137 0.52346-0.11137 0.24502 0 0.43436 0.0529 0.18934 0.05012 0.39816 0.15871v-1.3476h0.52346zm-0.52346-0.76569v-1.7848q-0.21161-0.09467-0.37867-0.13086-0.16706-0.0362-0.36475-0.0362-0.43993 0-0.68495 0.30628-0.24502 0.30628-0.24502 0.86872 0 0.55408 0.18934 0.84366 0.18934 0.28679 0.60699 0.28679 0.22275 0 0.45106-0.09745 0.22832-0.10024 0.426-0.25616z" />
        </g>
        <g fill="#56d4ff" stroke-width=".42767" aria-label="Ant 0">
            <path
                d="m63.124 24.613h-0.47l-0.32521-0.9244h-1.4345l-0.32521 0.9244h-0.44772l1.2073-3.3167h0.58805zm-0.93108-1.3031-0.58137-1.6283-0.5836 1.6283z" />
            <path
                d="m65.675 24.613h-0.41876v-1.4167q0-0.17152-0.02005-0.32076-0.02005-0.15147-0.07351-0.23611-0.05569-0.09355-0.16038-0.1381-0.10469-0.04678-0.27175-0.04678-0.17152 0-0.35862 0.08464-0.18711 0.08464-0.35862 0.21606v1.8577h-0.41876v-2.4881h0.41876v0.27621q0.19602-0.1626 0.4054-0.25393 0.20938-0.09133 0.4299-0.09133 0.40317 0 0.61478 0.2428 0.21161 0.24279 0.21161 0.69943z" />
            <path
                d="m67.773 24.591q-0.11806 0.03119-0.25839 0.05123-0.1381 0.02005-0.24725 0.02005-0.3809 0-0.57914-0.20493t-0.19824-0.6571v-1.3231h-0.28289v-0.35194h0.28289v-0.71502h0.41876v0.71502h0.86426v0.35194h-0.86426v1.1338q0 0.19602 0.0089 0.30739 0.0089 0.10915 0.06237 0.20493 0.04901 0.0891 0.13365 0.13142 0.08687 0.0401 0.26284 0.0401 0.10246 0 0.21384-0.02896 0.11137-0.03118 0.16038-0.05123h0.02227z" />
            <path
                d="m72.07 22.953q0 0.89322-0.28066 1.312-0.27843 0.41654-0.86649 0.41654-0.59696 0-0.87317-0.42322-0.27398-0.42322-0.27398-1.3008 0-0.88431 0.27843-1.3053 0.27843-0.42322 0.86871-0.42322 0.59696 0 0.87094 0.4299 0.27621 0.42767 0.27621 1.2942zm-0.58582 1.0113q0.07796-0.18042 0.10469-0.42322 0.02896-0.24502 0.02896-0.58805 0-0.33858-0.02896-0.58805-0.02673-0.24948-0.10692-0.42322-0.07796-0.17152-0.21384-0.25839-0.13365-0.08687-0.34526-0.08687-0.20938 0-0.34748 0.08687-0.13588 0.08687-0.21606 0.26284-0.07573 0.16483-0.10469 0.4299-0.02673 0.26507-0.02673 0.58137 0 0.34749 0.0245 0.58137t0.10469 0.41876q0.07351 0.17374 0.20716 0.26507 0.13588 0.09133 0.35862 0.09133 0.20938 0 0.34748-0.08687 0.1381-0.08687 0.21384-0.26284z" />
        </g>
        <path d="m77.223 26.699v36.562" fill="none" stroke="#56d4ff" stroke-width=".51321" />
        <path
            d="m79.375 26.699a2.1517 2.1517 0 0 1-2.1517 2.1517 2.1517 2.1517 0 0 1-2.1517-2.1517 2.1517 2.1517 0 0 1 2.1517-2.1517 2.1517 2.1517 0 0 1 2.1517 2.1517z"
            fill="#56d4ff" stroke="#fff" stroke-width=".54584" />
        <g fill="none">
            <path d="m93.338 57.236a17.205 17.205 0 0 1 1.0895 6.0253" stroke="#ffe970" stroke-width=".26458" />
            <path d="m76.859 63.261h64.656" stroke="#fff" stroke-dasharray="0.52916665,1.05833331" stroke-opacity=".5"
                stroke-width=".52917" />
            <path d="m76.933 63.228 64.584-23.277" stroke="#ffe970" stroke-dasharray="0.52916665,1.05833331"
                stroke-width=".52917" />
            <path d="m25.708 57.272h31.187v11.978h-31.187z" stroke="#fff" stroke-width=".49536" />
        </g>
        <g fill="#ffe970" stroke-width=".42767" aria-label="θ">
            <path
                d="m99.32 59.64q0 0.52902-0.06404 0.88264-0.06404 0.35083-0.16428 0.58471-0.16149 0.37589-0.45385 0.568-0.29236 0.18934-0.71558 0.18934t-0.71558-0.18934q-0.29236-0.19212-0.45385-0.568-0.10302-0.23388-0.16706-0.58471-0.06126-0.35361-0.06126-0.88264 0-0.48448 0.06126-0.84922 0.06404-0.36753 0.16984-0.59863 0.15871-0.36196 0.45106-0.55408 0.29514-0.19212 0.71558-0.19212 0.42044 0 0.71279 0.19212 0.29514 0.19212 0.45385 0.55408 0.10302 0.23388 0.16706 0.59863 0.06404 0.36475 0.06404 0.84922zm-0.52624-0.25059q-0.01114-0.39816-0.08075-0.69609-0.06682-0.29792-0.15592-0.44828-0.11416-0.1949-0.26451-0.27287-0.15035-0.08075-0.37032-0.08075t-0.37032 0.08075q-0.15036 0.07796-0.26451 0.27287-0.09467 0.15314-0.16149 0.45106-0.06404 0.29514-0.07518 0.6933zm0 0.44828h-1.743q0 0.39538 0.06404 0.72114 0.06404 0.32298 0.16428 0.49561 0.11137 0.19212 0.2673 0.27844 0.15592 0.08631 0.37589 0.08631t0.37589-0.08631 0.2673-0.27844q0.10024-0.17263 0.16428-0.49561 0.06404-0.32577 0.06404-0.72114z" />
        </g>
        <g fill="#ffe970" stroke-width=".27795" aria-label="-ω0ΔT">
            <path d="m35.151 63.73h-1.7374v-0.50397h1.7374z" />
            <path
                d="m39.901 63.892q0 0.2673-0.06682 0.53738-0.06404 0.2673-0.20604 0.47612-0.15314 0.22275-0.3731 0.34804-0.21718 0.12251-0.53738 0.12251-0.2673 0-0.49283-0.13643-0.22553-0.13922-0.32855-0.32577h-0.01671q-0.10859 0.18934-0.31463 0.32577t-0.49004 0.13643q-0.31463 0-0.54295-0.12808-0.22553-0.13086-0.36753-0.34247-0.142-0.21161-0.20883-0.47612-0.06404-0.2673-0.06404-0.53738 0-0.47334 0.15871-0.85758 0.15871-0.38702 0.55965-0.85201h0.63483v0.04733q-0.37589 0.30071-0.59863 0.7295-0.21996 0.42879-0.21996 0.93832 0 0.18377 0.02227 0.34247 0.02228 0.15592 0.1058 0.33134 0.07239 0.15314 0.20047 0.25616 0.13086 0.10024 0.32855 0.10024 0.142 0 0.23945-0.03341 0.10024-0.0362 0.15592-0.08353 0.06125-0.05012 0.10024-0.11137 0.04177-0.06126 0.05847-0.10302v-1.6261h0.51789v1.6261q0.02506 0.04733 0.06404 0.10859 0.03898 0.06126 0.09745 0.10859 0.06682 0.0529 0.14479 0.08353 0.08075 0.03063 0.24224 0.03063 0.1949 0 0.32577-0.09745 0.13086-0.10024 0.20604-0.25894 0.06961-0.15314 0.10024-0.32298 0.03063-0.16984 0.03063-0.35083 0-0.50675-0.21996-0.93554-0.21718-0.42879-0.59863-0.73228v-0.04733h0.63483q0.40094 0.46498 0.55965 0.85201 0.15871 0.38424 0.15871 0.85758z" />
            <path
                d="m41.516 64.463q0 0.44661-0.14033 0.65599-0.13922 0.20827-0.43324 0.20827-0.29848 0-0.43658-0.21161-0.13699-0.21161-0.13699-0.65042 0-0.44215 0.13922-0.65265 0.13922-0.21161 0.43436-0.21161 0.29848 0 0.43547 0.21495 0.1381 0.21384 0.1381 0.64708zm-0.29291 0.50564q0.03898-0.09021 0.05235-0.21161 0.01448-0.12251 0.01448-0.29403 0-0.16929-0.01448-0.29403-0.01337-0.12474-0.05346-0.21161-0.03898-0.08576-0.10692-0.12919-0.06682-0.04344-0.17263-0.04344-0.10469 0-0.17374 0.04344-0.06794 0.04344-0.10803 0.13142-0.03787 0.08242-0.05235 0.21495-0.01337 0.13254-0.01337 0.29068 0 0.17374 0.01225 0.29068t0.05235 0.20938q0.03675 0.08687 0.10358 0.13254 0.06794 0.04566 0.17931 0.04566 0.10469 0 0.17374-0.04344 0.06905-0.04344 0.10692-0.13142z" />
            <path d="m45.603 65.292h-3.8647l1.5648-4.1459h0.73507zm-0.74342-0.46777-1.2028-3.1936-1.2001 3.1936z" />
            <path d="m49.189 61.637h-1.4813v3.6558h-0.5513v-3.6558h-1.4813v-0.49004h3.5138z" />
        </g>
        <g fill="#fff" stroke-width=".27799" aria-label="x1">
            <path
                d="m6.9088 64.712h-0.65989l-0.88264-1.1945-0.8882 1.1945h-0.60977l1.214-1.5509-1.2028-1.5592h0.65989l0.87707 1.175 0.87985-1.175h0.61256l-1.2223 1.5314z" />
            <path
                d="m8.2832 64.712h-0.89767v-0.16929h0.34526v-1.1115h-0.34526v-0.15147q0.070165 0 0.15035-0.01114 0.080189-0.01225 0.1214-0.03453 0.051232-0.02784 0.080189-0.07017 0.030071-0.04343 0.034526-0.11583h0.17263v1.4946h0.33858z" />
        </g>
        <g fill="#56d4ff" stroke-width=".42767" aria-label="d">
            <path
                d="m74.581 84.691h-0.52346v-0.32577q-0.22553 0.1949-0.47055 0.30349-0.24502 0.10859-0.53181 0.10859-0.55687 0-0.88542-0.42879-0.32577-0.42879-0.32577-1.1889 0-0.39538 0.11137-0.70444 0.11416-0.30906 0.30628-0.52624 0.18934-0.21161 0.43993-0.32298 0.25338-0.11137 0.52346-0.11137 0.24502 0 0.43436 0.0529 0.18934 0.05012 0.39816 0.15871v-1.3476h0.52346zm-0.52346-0.76569v-1.7848q-0.21161-0.09467-0.37867-0.13086-0.16706-0.0362-0.36475-0.0362-0.43993 0-0.68495 0.30628-0.24502 0.30628-0.24502 0.86871 0 0.55408 0.18934 0.84366 0.18934 0.28679 0.60699 0.28679 0.22275 0 0.45106-0.09745 0.22832-0.10024 0.426-0.25616z" />
        </g>
        <g fill="#56d4ff" stroke-width=".42767" aria-label="Ant 1">
            <path
                d="m63.124 61.175h-0.47l-0.32521-0.9244h-1.4345l-0.32521 0.9244h-0.44772l1.2073-3.3167h0.58805zm-0.93108-1.3031-0.58137-1.6283-0.5836 1.6283z" />
            <path
                d="m65.675 61.175h-0.41876v-1.4167q0-0.17152-0.02005-0.32076-0.02005-0.15147-0.07351-0.23611-0.05569-0.09355-0.16038-0.1381-0.10469-0.04678-0.27175-0.04678-0.17152 0-0.35862 0.08464-0.18711 0.08464-0.35862 0.21606v1.8577h-0.41876v-2.4881h0.41876v0.27621q0.19602-0.1626 0.4054-0.25393 0.20938-0.09133 0.4299-0.09133 0.40317 0 0.61478 0.2428 0.21161 0.24279 0.21161 0.69942z" />
            <path
                d="m67.773 61.153q-0.11806 0.03118-0.25839 0.05123-0.1381 0.02005-0.24725 0.02005-0.3809 0-0.57914-0.20493-0.19824-0.20493-0.19824-0.6571v-1.3231h-0.28289v-0.35194h0.28289v-0.71502h0.41876v0.71502h0.86426v0.35194h-0.86426v1.1338q0 0.19602 0.0089 0.30739 0.0089 0.10915 0.06237 0.20493 0.04901 0.0891 0.13365 0.13142 0.08687 0.04009 0.26284 0.04009 0.10246 0 0.21384-0.02896 0.11137-0.03118 0.16038-0.05123h0.02227z" />
            <path
                d="m71.885 61.175h-1.7953v-0.33858h0.69052v-2.223h-0.69052v-0.30294q0.14033 0 0.30071-0.02227 0.16038-0.0245 0.2428-0.06905 0.10246-0.05569 0.16038-0.14033 0.06014-0.08687 0.06905-0.23166h0.34526v2.9893h0.67715z" />
        </g>
        <g transform="matrix(.87223 -.32085 .37147 1.0098 0 0)" fill="#fff" stroke-width=".16337" aria-label="dsinθ">
            <path
                d="m59.09 78.765h-0.2996v-0.18645q-0.12908 0.11155-0.26932 0.1737-0.14024 0.06215-0.30438 0.06215-0.31872 0-0.50677-0.24542-0.18645-0.24542-0.18645-0.68047 0-0.22629 0.06374-0.40318 0.06534-0.17689 0.1753-0.30119 0.10836-0.12111 0.25179-0.18486 0.14502-0.06374 0.2996-0.06374 0.14024 0 0.2486 0.03028 0.10836 0.02868 0.22788 0.09083v-0.7713h0.2996zm-0.2996-0.43824v-1.0215q-0.12111-0.05418-0.21673-0.0749-0.09562-0.02072-0.20876-0.02072-0.25179 0-0.39203 0.1753-0.14024 0.1753-0.14024 0.4972 0 0.31713 0.10836 0.48286 0.10836 0.16414 0.34741 0.16414 0.12749 0 0.25816-0.05578 0.13068-0.05737 0.24382-0.14661z" />
            <path
                d="m60.952 78.252q0 0.24382-0.20239 0.4-0.20079 0.15617-0.54979 0.15617-0.19761 0-0.36334-0.04621-0.16414-0.04781-0.27569-0.10358v-0.33625h0.01594q0.14183 0.10677 0.31553 0.17052 0.1737 0.06215 0.33306 0.06215 0.19761 0 0.30916-0.06374 0.11155-0.06374 0.11155-0.20079 0-0.10518-0.06056-0.15936-0.06056-0.05418-0.23267-0.09243-0.06375-0.01434-0.16733-0.03346-0.10199-0.01912-0.18645-0.04143-0.23426-0.06215-0.33306-0.18167-0.09721-0.12111-0.09721-0.29641 0-0.10996 0.04462-0.20717 0.04622-0.09721 0.13864-0.1737 0.08924-0.0749 0.22629-0.11793 0.13864-0.04462 0.30916-0.04462 0.15936 0 0.32191 0.03984 0.16414 0.03825 0.27251 0.09402v0.32031h-0.01594q-0.11474-0.08446-0.27888-0.14183-0.16414-0.05896-0.32191-0.05896-0.16414 0-0.27729 0.06374-0.11315 0.06215-0.11315 0.18645 0 0.10996 0.06853 0.16574 0.06693 0.05578 0.21673 0.09083 0.08287 0.01912 0.18486 0.03825 0.10358 0.01912 0.17211 0.03506 0.20876 0.04781 0.32191 0.16414 0.11314 0.11793 0.11314 0.31235z" />
            <path d="m61.702 76.687h-0.33784v-0.31075h0.33784zm-0.01912 2.0781h-0.2996v-1.7801h0.2996z" />
            <path
                d="m63.765 78.765h-0.2996v-1.0135q0-0.12271-0.01434-0.22948-0.01434-0.10836-0.05259-0.16892-0.03984-0.06693-0.11474-0.0988-0.0749-0.03346-0.19442-0.03346-0.12271 0-0.25657 0.06056-0.13386 0.06056-0.25657 0.15458v1.3291h-0.2996v-1.7801h0.2996v0.19761q0.14024-0.11633 0.29004-0.18167 0.1498-0.06534 0.30757-0.06534 0.28844 0 0.43983 0.1737 0.15139 0.1737 0.15139 0.50039z" />
            <path
                d="m65.865 77.541q0 0.30278-0.03665 0.50517-0.03665 0.20079-0.09402 0.33466-0.09243 0.21514-0.25976 0.3251-0.16733 0.10836-0.40956 0.10836-0.24223 0-0.40956-0.10836-0.16733-0.10996-0.25976-0.3251-0.05896-0.13386-0.09562-0.33466-0.03506-0.20239-0.03506-0.50517 0-0.27729 0.03506-0.48605 0.03665-0.21036 0.09721-0.34262 0.09083-0.20717 0.25816-0.31713 0.16892-0.10996 0.40956-0.10996 0.24064 0 0.40796 0.10996 0.16892 0.10996 0.25976 0.31713 0.05896 0.13386 0.09562 0.34262 0.03665 0.20876 0.03665 0.48605zm-0.30119-0.14342q-0.0064-0.22789-0.04621-0.3984-0.03825-0.17052-0.08924-0.25657-0.06534-0.11155-0.15139-0.15617-0.08606-0.04621-0.21195-0.04621-0.12589 0-0.21195 0.04621-0.08605 0.04462-0.15139 0.15617-0.05418 0.08765-0.09243 0.25816-0.03665 0.16892-0.04303 0.39681zm0 0.25657h-0.9976q0 0.22629 0.03665 0.41274 0.03665 0.18486 0.09402 0.28366 0.06374 0.10996 0.15299 0.15936 0.08924 0.0494 0.21514 0.0494 0.1259 0 0.21514-0.0494 0.08924-0.0494 0.15299-0.15936 0.05737-0.0988 0.09402-0.28366 0.03665-0.18645 0.03665-0.41274z" />
        </g>
        <path d="m77.223 63.261v36.562" fill="none" stroke="#56d4ff" stroke-width=".51321" />
        <path d="m77.223 63.261 11.16-4.1886" fill="none" stroke="#fff" stroke-width=".42767px" />
        <path
            d="m79.375 63.261a2.1517 2.1517 0 0 1-2.1517 2.1517 2.1517 2.1517 0 0 1-2.1517-2.1517 2.1517 2.1517 0 0 1 2.1517-2.1517 2.1517 2.1517 0 0 1 2.1517 2.1517z"
            fill="#56d4ff" stroke="#fff" stroke-width=".54584" />
        <g fill="none">
            <path d="m93.338 93.798a17.205 17.205 0 0 1 1.0895 6.0253" stroke="#ffe970" stroke-width=".26458" />
            <path d="m76.859 99.823h64.656" stroke="#fff" stroke-dasharray="0.52916665,1.05833331" stroke-opacity=".5"
                stroke-width=".52917" />
            <path d="m76.933 99.79 64.584-23.277" stroke="#ffe970" stroke-dasharray="0.52916665,1.05833331"
                stroke-width=".52917" />
            <path d="m25.708 93.834h31.187v11.978h-31.187z" stroke="#fff" stroke-width=".49536" />
        </g>
        <g fill="#ffe970" stroke-width=".42767" aria-label="θ">
            <path
                d="m99.32 96.202q0 0.52902-0.06404 0.88264-0.06404 0.35083-0.16428 0.58471-0.16149 0.37589-0.45385 0.568-0.29236 0.18934-0.71558 0.18934t-0.71558-0.18934q-0.29236-0.19212-0.45385-0.568-0.10302-0.23388-0.16706-0.58471-0.06126-0.35361-0.06126-0.88264 0-0.48448 0.06126-0.84922 0.06404-0.36753 0.16984-0.59863 0.15871-0.36196 0.45106-0.55408 0.29514-0.19212 0.71558-0.19212 0.42044 0 0.71279 0.19212 0.29514 0.19212 0.45385 0.55408 0.10302 0.23388 0.16706 0.59863t0.06404 0.84922zm-0.52624-0.25059q-0.01114-0.39816-0.08075-0.69608-0.06682-0.29792-0.15592-0.44828-0.11416-0.1949-0.26451-0.27286-0.15035-0.08075-0.37032-0.08075t-0.37032 0.08075q-0.15036 0.07796-0.26451 0.27286-0.09467 0.15314-0.16149 0.45106-0.06404 0.29514-0.07518 0.6933zm0 0.44828h-1.743q0 0.39538 0.06404 0.72114 0.06404 0.32298 0.16428 0.49561 0.11137 0.19212 0.2673 0.27843 0.15592 0.08631 0.37589 0.08631t0.37589-0.08631 0.2673-0.27843q0.10024-0.17263 0.16428-0.49561 0.06404-0.32577 0.06404-0.72114z" />
        </g>
        <g fill="#ffe970" stroke-width=".27795" aria-label="-2ω0ΔT">
            <path d="m33.339 100.34h-1.7374v-0.50396h1.7374z" />
            <path
                d="m37.019 101.9h-2.8066v-0.58193q0.29236-0.25059 0.58471-0.50118 0.29514-0.25059 0.54852-0.4984 0.53459-0.51789 0.73228-0.82138 0.19769-0.30628 0.19769-0.65989 0-0.32298-0.21439-0.50396-0.21161-0.18377-0.59306-0.18377-0.25338 0-0.54852 0.0891-0.29514 0.0891-0.57636 0.27286h-0.02784v-0.58471q0.19769-0.09745 0.52624-0.1782 0.33134-0.08075 0.6404-0.08075 0.63761 0 0.99958 0.30906 0.36196 0.30628 0.36196 0.83252 0 0.23667-0.06126 0.44271-0.05847 0.20326-0.17541 0.38702-0.10859 0.17263-0.25616 0.33969-0.14479 0.16706-0.35361 0.37032-0.29792 0.29235-0.61534 0.568-0.31742 0.27287-0.59306 0.50675h2.2303z" />
            <path
                d="m41.714 100.5q0 0.2673-0.06682 0.53738-0.06404 0.2673-0.20604 0.47612-0.15314 0.22275-0.3731 0.34805-0.21718 0.12251-0.53738 0.12251-0.2673 0-0.49283-0.13644-0.22553-0.13921-0.32855-0.32576h-0.01671q-0.10859 0.18933-0.31463 0.32576-0.20604 0.13644-0.49004 0.13644-0.31463 0-0.54295-0.12808-0.22553-0.13087-0.36753-0.34248-0.142-0.21161-0.20883-0.47612-0.06404-0.2673-0.06404-0.53738 0-0.47334 0.15871-0.85757 0.15871-0.38702 0.55965-0.85201h0.63483v0.04733q-0.37589 0.30071-0.59863 0.7295-0.21996 0.42879-0.21996 0.93832 0 0.18377 0.02227 0.34248 0.02228 0.15592 0.1058 0.33133 0.07239 0.15314 0.20047 0.25616 0.13086 0.10024 0.32855 0.10024 0.142 0 0.23945-0.0334 0.10024-0.0362 0.15592-0.0835 0.06126-0.0501 0.10024-0.11138 0.04176-0.0613 0.05847-0.10302v-1.6261h0.51789v1.6261q0.02506 0.0473 0.06404 0.10859 0.03898 0.0613 0.09745 0.10859 0.06682 0.0529 0.14479 0.0835 0.08075 0.0306 0.24224 0.0306 0.1949 0 0.32577-0.0974 0.13086-0.10024 0.20604-0.25895 0.06961-0.15314 0.10024-0.32298 0.03063-0.16985 0.03063-0.35083 0-0.50675-0.21996-0.93554-0.21718-0.42879-0.59863-0.73228v-0.04733h0.63483q0.40094 0.46498 0.55965 0.85201 0.15871 0.38423 0.15871 0.85757z" />
            <path
                d="m43.328 101.07q0 0.44661-0.14033 0.65599-0.13922 0.20827-0.43324 0.20827-0.29848 0-0.43658-0.21161-0.13699-0.21161-0.13699-0.65042 0-0.44215 0.13922-0.65265 0.13922-0.21161 0.43436-0.21161 0.29848 0 0.43547 0.21495 0.1381 0.21384 0.1381 0.64708zm-0.29291 0.50564q0.03898-0.0902 0.05234-0.21161 0.01448-0.12251 0.01448-0.29403 0-0.16928-0.01448-0.29402-0.01336-0.12474-0.05346-0.21161-0.03898-0.0858-0.10692-0.1292-0.06683-0.0434-0.17263-0.0434-0.10469 0-0.17374 0.0434-0.06794 0.0434-0.10803 0.13142-0.03787 0.0824-0.05235 0.21496-0.01337 0.13253-0.01337 0.29068 0 0.17374 0.01225 0.29069 0.01225 0.11694 0.05235 0.20938 0.03675 0.0869 0.10358 0.13253 0.06794 0.0457 0.17931 0.0457 0.10469 0 0.17374-0.0434 0.06905-0.0434 0.10692-0.13142z" />
            <path d="m47.416 101.9h-3.8647l1.5648-4.1459h0.73507zm-0.74342-0.46777-1.2028-3.1936-1.2001 3.1936z" />
            <path d="m51.002 98.242h-1.4813v3.6558h-0.5513v-3.6558h-1.4813v-0.49004h3.5138z" />
        </g>
        <g fill="#fff" stroke-width=".27799" aria-label="x2">
            <path
                d="m6.9088 101.27h-0.65989l-0.88264-1.1945-0.8882 1.1945h-0.60977l1.214-1.5509-1.2028-1.5592h0.65989l0.87707 1.175 0.87985-1.175h0.61256l-1.2223 1.5314z" />
            <path
                d="m8.3779 101.27h-1.1226v-0.23277q0.11694-0.10024 0.23388-0.20047 0.11806-0.10024 0.21941-0.19936 0.21384-0.20716 0.29291-0.32855 0.079075-0.12251 0.079075-0.26396 0-0.12919-0.085758-0.20158-0.084644-0.07351-0.23723-0.07351-0.10135 0-0.21941 0.03564-0.11806 0.03564-0.23054 0.10915h-0.011137v-0.23388q0.079075-0.03898 0.2105-0.07128 0.13253-0.0323 0.25616-0.0323 0.25505 0 0.39983 0.12362 0.14479 0.12251 0.14479 0.333 0 0.0947-0.024502 0.17709-0.023388 0.0813-0.070165 0.15481-0.043436 0.0691-0.10246 0.13587-0.057914 0.0668-0.14144 0.14813-0.11917 0.11694-0.24614 0.2272-0.12697 0.10915-0.23723 0.2027h0.8921z" />
        </g>
        <g fill="#56d4ff" stroke-width=".42767" aria-label="Ant 2">
            <path
                d="m63.124 97.737h-0.47l-0.32521-0.9244h-1.4345l-0.32521 0.9244h-0.44772l1.2073-3.3167h0.58805zm-0.93108-1.3031-0.58137-1.6283-0.5836 1.6283z" />
            <path
                d="m65.675 97.737h-0.41876v-1.4167q0-0.17152-0.02005-0.32076-0.02005-0.15147-0.07351-0.23611-0.05569-0.09355-0.16038-0.1381-0.10469-0.04678-0.27175-0.04678-0.17152 0-0.35862 0.08464-0.18711 0.08464-0.35862 0.21606v1.8577h-0.41876v-2.4881h0.41876v0.27621q0.19602-0.1626 0.4054-0.25393 0.20938-0.09133 0.4299-0.09133 0.40317 0 0.61478 0.24279 0.21161 0.2428 0.21161 0.69943z" />
            <path
                d="m67.773 97.715q-0.11806 0.03118-0.25839 0.05123-0.1381 0.02005-0.24725 0.02005-0.3809 0-0.57914-0.20493-0.19824-0.20493-0.19824-0.6571v-1.3231h-0.28289v-0.35194h0.28289v-0.71502h0.41876v0.71502h0.86426v0.35194h-0.86426v1.1338q0 0.19602 0.0089 0.30739 0.0089 0.10915 0.06237 0.20493 0.049 0.0891 0.13365 0.13142 0.08687 0.04009 0.26284 0.04009 0.10246 0 0.21384-0.02896 0.11137-0.03119 0.16038-0.05123h0.02227z" />
            <path
                d="m72.074 97.737h-2.2453v-0.46554q0.23388-0.20047 0.46777-0.40094 0.23611-0.20047 0.43881-0.39872 0.42767-0.41431 0.58582-0.6571 0.15815-0.24502 0.15815-0.52791 0-0.25839-0.17152-0.40317-0.16929-0.14701-0.47445-0.14701-0.2027 0-0.43881 0.07128t-0.46109 0.21829h-0.02227v-0.46777q0.15815-0.07796 0.42099-0.14256 0.26507-0.0646 0.51232-0.0646 0.51009 0 0.79966 0.24725 0.28957 0.24502 0.28957 0.66601 0 0.18934-0.049 0.35417-0.04678 0.1626-0.14033 0.30962-0.08687 0.1381-0.20493 0.27175-0.11583 0.13365-0.28289 0.29625-0.23834 0.23388-0.49227 0.4544-0.25393 0.21829-0.47445 0.4054h1.7842z" />
        </g>
        <path d="m77.223 99.823v36.562" fill="none" stroke="#56d4ff" stroke-dasharray="1.05833331,6.34999985"
            stroke-width="1.0583" />
        <path
            d="m79.375 99.823a2.1517 2.1517 0 0 1-2.1517 2.1517 2.1517 2.1517 0 0 1-2.1517-2.1517 2.1517 2.1517 0 0 1 2.1517-2.1517 2.1517 2.1517 0 0 1 2.1517 2.1517z"
            fill="#56d4ff" stroke="#fff" stroke-width=".54584" />
        <g fill="none">
            <path d="m93.338 130.36a17.205 17.205 0 0 1 1.0895 6.0253" stroke="#ffe970" stroke-width=".26458" />
            <path d="m76.859 136.39h64.656" stroke="#fff" stroke-dasharray="0.52916665,1.05833331" stroke-opacity=".5"
                stroke-width=".52917" />
            <path d="m76.933 136.35 64.584-23.277" stroke="#ffe970" stroke-dasharray="0.52916665,1.05833331"
                stroke-width=".52917" />
            <path d="m25.708 130.4h31.187v11.978h-31.187z" stroke="#fff" stroke-width=".49536" />
        </g>
        <g fill="#ffe970" stroke-width=".42767" aria-label="θ">
            <path
                d="m99.32 132.76q0 0.52902-0.06404 0.88263-0.06404 0.35083-0.16428 0.58471-0.16149 0.37589-0.45385 0.56801-0.29236 0.18933-0.71558 0.18933t-0.71558-0.18933q-0.29236-0.19212-0.45385-0.56801-0.10302-0.23388-0.16706-0.58471-0.06126-0.35361-0.06126-0.88263 0-0.48448 0.06126-0.84923 0.06404-0.36753 0.16984-0.59863 0.15871-0.36197 0.45106-0.55409 0.29514-0.19212 0.71558-0.19212 0.42044 0 0.71279 0.19212 0.29514 0.19212 0.45385 0.55409 0.10302 0.23388 0.16706 0.59863t0.06404 0.84923zm-0.52624-0.2506q-0.01114-0.39816-0.08075-0.69608-0.06682-0.29793-0.15592-0.44828-0.11416-0.1949-0.26451-0.27286-0.15035-0.0807-0.37032-0.0807t-0.37032 0.0807q-0.15036 0.078-0.26451 0.27286-0.09467 0.15314-0.16149 0.45106-0.06404 0.29514-0.07518 0.6933zm0 0.44828h-1.743q0 0.39538 0.06404 0.72115 0.06404 0.32298 0.16428 0.49561 0.11137 0.19212 0.2673 0.27843 0.15592 0.0863 0.37589 0.0863t0.37589-0.0863 0.2673-0.27843q0.10024-0.17263 0.16428-0.49561 0.06404-0.32577 0.06404-0.72115z" />
        </g>
        <g fill="#ffe970" stroke-width=".2406" aria-label="-(N-1)ω0ΔT">
            <path d="m29.083 136.63h-1.5039v-0.43624h1.5039z" />
            <path
                d="m31.339 138.97h-0.55193q-0.4266-0.48926-0.66279-1.0677-0.2362-0.57844-0.2362-1.3039t0.2362-1.3039q0.2362-0.57844 0.66279-1.0677h0.55193v0.0241q-0.19522 0.17594-0.37357 0.40731-0.17594 0.22897-0.32778 0.53506-0.14461 0.29645-0.2362 0.65315-0.08918 0.3567-0.08918 0.75197 0 0.41214 0.08677 0.75438 0.08918 0.34224 0.2386 0.65074 0.14461 0.29645 0.33019 0.53506 0.18558 0.24101 0.37116 0.40731z" />
            <path
                d="m34.913 137.98h-0.59049l-1.7016-3.2103v3.2103h-0.44588v-3.5887h0.73992l1.5521 2.9308v-2.9308h0.44588z" />
            <path d="m37.259 136.63h-1.5039v-0.43624h1.5039z" />
            <path
                d="m40.24 137.98h-1.9426v-0.36634h0.74715v-2.4053h-0.74715v-0.32778q0.15184 0 0.32537-0.0241 0.17353-0.0265 0.26271-0.0747 0.11087-0.0602 0.17353-0.15184 0.06507-0.094 0.07472-0.25065h0.37357v3.2344h0.73269z" />
            <path
                d="m42.571 136.6q0 0.72546-0.2362 1.3039-0.2362 0.57843-0.66279 1.0677h-0.55193v-0.0241q0.18558-0.1663 0.37116-0.40731 0.18799-0.23861 0.33019-0.53506 0.14943-0.3085 0.2362-0.65074 0.08918-0.34224 0.08918-0.75438 0-0.39527-0.08918-0.75197t-0.2362-0.65315q-0.15184-0.30609-0.33019-0.53506-0.17594-0.23137-0.37116-0.40731v-0.0241h0.55193q0.4266 0.48926 0.66279 1.0677 0.2362 0.57843 0.2362 1.3039z" />
            <path
                d="m46.75 136.77q0 0.23138-0.05784 0.46516-0.05543 0.23138-0.17835 0.41214-0.13256 0.19281-0.32296 0.30127-0.18799 0.10604-0.46516 0.10604-0.23138 0-0.4266-0.11809-0.19522-0.12051-0.2844-0.28199h-0.01446q-0.094 0.16389-0.27235 0.28199-0.17835 0.11809-0.42419 0.11809-0.27235 0-0.46998-0.11086-0.19522-0.11328-0.31814-0.29645t-0.18076-0.41214q-0.05543-0.23137-0.05543-0.46516 0-0.40973 0.13738-0.74233 0.13738-0.33501 0.48444-0.7375h0.54952v0.041q-0.32537 0.26029-0.51818 0.63146-0.1904 0.37116-0.1904 0.81222 0 0.15907 0.01928 0.29645 0.01928 0.13497 0.09159 0.28681 0.06266 0.13256 0.17353 0.22173 0.11328 0.0868 0.2844 0.0868 0.12292 0 0.20727-0.0289 0.08676-0.0313 0.13497-0.0723 0.05302-0.0434 0.08677-0.0964 0.03615-0.053 0.05061-0.0892v-1.4075h0.44829v1.4075q0.02169 0.041 0.05543 0.094t0.08435 0.094q0.05784 0.0458 0.12533 0.0723 0.06989 0.0265 0.20968 0.0265 0.16871 0 0.28199-0.0844 0.11328-0.0868 0.17835-0.22414 0.06025-0.13256 0.08677-0.27958 0.02651-0.14702 0.02651-0.30368 0-0.43865-0.1904-0.80981-0.18799-0.37116-0.51818-0.63387v-0.041h0.54952q0.34706 0.40249 0.48444 0.7375 0.13738 0.3326 0.13738 0.74233z" />
            <path
                d="m48.147 137.26q0 0.38658-0.12147 0.56783-0.12051 0.18028-0.37502 0.18028-0.25837 0-0.37791-0.18318-0.11858-0.18317-0.11858-0.563 0-0.38274 0.12051-0.56494 0.12051-0.18317 0.37598-0.18317 0.25837 0 0.37695 0.18606 0.11954 0.1851 0.11954 0.56012zm-0.25355 0.43768q0.03374-0.0781 0.04531-0.18317 0.01253-0.10605 0.01253-0.25451 0-0.14654-0.01253-0.25451-0.01157-0.10798-0.04627-0.18318-0.03374-0.0742-0.09255-0.11183-0.05784-0.0376-0.14943-0.0376-0.09062 0-0.15039 0.0376-0.05881 0.0376-0.09351 0.11376-0.03278 0.0713-0.04531 0.18607-0.01157 0.11472-0.01157 0.25162 0 0.15039 0.0106 0.25161 0.0106 0.10123 0.04531 0.18125 0.03181 0.0752 0.08966 0.11472 0.05881 0.0395 0.15521 0.0395 0.09062 0 0.15039-0.0376 0.05977-0.0376 0.09255-0.11376z" />
            <path d="m51.685 137.98h-3.3453l1.3545-3.5887h0.63628zm-0.64351-0.40491-1.0412-2.7644-1.0388 2.7644z" />
            <path d="m54.79 134.81h-1.2822v3.1645h-0.47721v-3.1645h-1.2822v-0.42418h3.0416z" />
        </g>
        <g fill="#fff" stroke-width=".27799" aria-label="xN-1">
            <path
                d="m4.8369 138.07h-0.65989l-0.88264-1.1945-0.8882 1.1945h-0.60977l1.214-1.5509-1.2028-1.5592h0.65989l0.87707 1.175 0.87985-1.175h0.61256l-1.2223 1.5314z" />
            <path
                d="m6.4919 138.07h-0.27287l-0.7863-1.4835v1.4835h-0.20604v-1.6584h0.34192l0.71725 1.3543v-1.3543h0.20604z" />
            <path d="m7.5756 137.44h-0.69497v-0.20158h0.69497z" />
            <path
                d="m8.9533 138.07h-0.89767v-0.16929h0.34526v-1.1115h-0.34526v-0.15147q0.070165 0 0.15035-0.0111 0.080189-0.0122 0.1214-0.0345 0.051232-0.0278 0.080189-0.0702 0.030071-0.0434 0.034526-0.11583h0.17263v1.4946h0.33858z" />
        </g>
        <g fill="#56d4ff" stroke-width=".42767" aria-label="Ant N-1">
            <path
                d="m60.976 134.22h-0.47l-0.32521-0.9244h-1.4345l-0.32521 0.9244h-0.44772l1.2073-3.3167h0.58805zm-0.93108-1.3031-0.58137-1.6283-0.5836 1.6283z" />
            <path
                d="m63.526 134.22h-0.41876v-1.4167q0-0.17151-0.02005-0.32075-0.02005-0.15147-0.07351-0.23612-0.05569-0.0935-0.16038-0.1381-0.10469-0.0468-0.27175-0.0468-0.17152 0-0.35862 0.0846-0.18711 0.0846-0.35862 0.21606v1.8577h-0.41876v-2.4881h0.41876v0.2762q0.19602-0.1626 0.4054-0.25393 0.20938-0.0913 0.4299-0.0913 0.40317 0 0.61478 0.24279 0.21161 0.24279 0.21161 0.69943z" />
            <path
                d="m65.624 134.2q-0.11806 0.0312-0.25839 0.0512-0.1381 0.02-0.24725 0.02-0.3809 0-0.57914-0.20493t-0.19824-0.6571v-1.3231h-0.28289v-0.35194h0.28289v-0.71502h0.41876v0.71502h0.86426v0.35194h-0.86426v1.1338q0 0.19602 0.0089 0.30739 0.0089 0.10915 0.06237 0.20493 0.04901 0.0891 0.13365 0.13142 0.08687 0.0401 0.26284 0.0401 0.10246 0 0.21384-0.029 0.11137-0.0312 0.16038-0.0512h0.02227z" />
            <path
                d="m70.298 134.22h-0.54573l-1.5726-2.967v2.967h-0.41208v-3.3167h0.68383l1.4345 2.7086v-2.7086h0.41208z" />
            <path d="m72.465 132.97h-1.3899v-0.40317h1.3899z" />
            <path
                d="m75.22 134.22h-1.7953v-0.33857h0.69052v-2.223h-0.69052v-0.30294q0.14033 0 0.30071-0.0223 0.16038-0.0245 0.24279-0.0691 0.10246-0.0557 0.16038-0.14033 0.06014-0.0869 0.06905-0.23166h0.34526v2.9893h0.67715z" />
        </g>
        <path
            d="m79.375 136.39a2.1517 2.1517 0 0 1-2.1517 2.1517 2.1517 2.1517 0 0 1-2.1517-2.1517 2.1517 2.1517 0 0 1 2.1517-2.1517 2.1517 2.1517 0 0 1 2.1517 2.1517z"
            fill="#56d4ff" stroke="#fff" stroke-width=".54584" />
        <g transform="matrix(.91534 0 0 .91534 -1.301 .27531)">
            <path d="m81.836 68.812-18.152-7e-6" fill="none" stroke="#fff" stroke-width=".44477px" />
            <path d="m28.128 68.812h-16.35" fill="none" stroke="#fff" stroke-width=".42707" />
            <path transform="matrix(.26458 0 0 .15171 6.1559 20.344)" d="m87.804 319.48-9.5234 5.4983v-10.997z"
                fill="#fff" stroke-dasharray="0.823181, 9.87817" stroke-width=".82318" />
            <path transform="matrix(.26458 0 0 .15171 59.864 20.344)" d="m87.804 319.48-9.5234 5.4983v-10.997z"
                fill="#fff" stroke-dasharray="0.823181, 9.87817" stroke-width=".82318" />
        </g>
        <g transform="matrix(.91534 0 0 .91534 -1.2621 -36.287)">
            <path d="m81.836 68.812-18.152-7e-6" fill="none" stroke="#fff" stroke-width=".44477px" />
            <path d="m28.128 68.812h-16.35" fill="none" stroke="#fff" stroke-width=".42707" />
            <path transform="matrix(.26458 0 0 .15171 6.1559 20.344)" d="m87.804 319.48-9.5234 5.4983v-10.997z"
                fill="#fff" stroke-dasharray="0.823181, 9.87817" stroke-width=".82318" />
            <path transform="matrix(.26458 0 0 .15171 59.864 20.344)" d="m87.804 319.48-9.5234 5.4983v-10.997z"
                fill="#fff" stroke-dasharray="0.823181, 9.87817" stroke-width=".82318" />
        </g>
        <g transform="matrix(.91534 0 0 .91534 -1.2621 36.837)">
            <path d="m81.836 68.812-18.152-7e-6" fill="none" stroke="#fff" stroke-width=".44477px" />
            <path d="m28.128 68.812h-16.35" fill="none" stroke="#fff" stroke-width=".42707" />
            <path transform="matrix(.26458 0 0 .15171 6.1559 20.344)" d="m87.804 319.48-9.5234 5.4983v-10.997z"
                fill="#fff" stroke-dasharray="0.823181, 9.87817" stroke-width=".82318" />
            <path transform="matrix(.26458 0 0 .15171 59.864 20.344)" d="m87.804 319.48-9.5234 5.4983v-10.997z"
                fill="#fff" stroke-dasharray="0.823181, 9.87817" stroke-width=".82318" />
        </g>
        <g transform="matrix(.91534 0 0 .91534 -1.2621 73.399)">
            <path d="m81.836 68.812-18.152-7e-6" fill="none" stroke="#fff" stroke-width=".44477px" />
            <path d="m28.128 68.812h-16.35" fill="none" stroke="#fff" stroke-width=".42707" />
            <path transform="matrix(.26458 0 0 .15171 6.1559 20.344)" d="m87.804 319.48-9.5234 5.4983v-10.997z"
                fill="#fff" stroke-dasharray="0.823181, 9.87817" stroke-width=".82318" />
            <path transform="matrix(.26458 0 0 .15171 59.864 20.344)" d="m87.804 319.48-9.5234 5.4983v-10.997z"
                fill="#fff" stroke-dasharray="0.823181, 9.87817" stroke-width=".82318" />
        </g>
    </g>
</svg>
